<?xml version="1.0" encoding="UTF-8"?>
<svg version="1.1" xmlns="http://www.w3.org/2000/svg" width="512" height="512">
<path d="M0 0 C0.7273205 -0.00235223 1.454641 -0.00470446 2.20400152 -0.00712797 C4.65419137 -0.01381324 7.10432812 -0.01335989 9.55452633 -0.01294994 C11.32380391 -0.01624887 13.09308074 -0.01997449 14.8623566 -0.02409142 C19.73476033 -0.03411637 24.60715173 -0.03782902 29.47956431 -0.04048073 C34.73061086 -0.04438233 39.98164763 -0.05396078 45.23268795 -0.0626936 C57.91935482 -0.08246232 70.60602249 -0.09252483 83.29270092 -0.10142139 C89.26597245 -0.1058037 95.23924309 -0.11117067 101.21251392 -0.11641026 C121.06726459 -0.1334231 140.92201471 -0.14791743 160.77677155 -0.155159 C165.92997965 -0.15706892 171.08318775 -0.15898924 176.23639584 -0.16094494 C177.51721277 -0.16142868 178.7980297 -0.16191242 180.11765926 -0.16241082 C200.86755127 -0.17071169 221.61738564 -0.19604934 242.36725248 -0.22852562 C263.66703713 -0.261591 284.96679248 -0.2796073 306.26660293 -0.28280324 C318.22712142 -0.28496883 330.18755587 -0.29372482 342.14804935 -0.31926441 C352.3339321 -0.34096427 362.51971038 -0.34902532 372.70561362 -0.33929763 C377.90189457 -0.33475087 383.09795996 -0.3366612 388.29421139 -0.35605907 C393.05465499 -0.37367643 397.81472553 -0.37270448 402.57517301 -0.35716178 C404.29395026 -0.35478356 406.01275325 -0.35912041 407.73149116 -0.37099043 C422.40457401 -0.46601936 434.18177774 2.07374094 445.20587826 12.35687733 C453.54546656 21.04050805 457.9407433 30.2981986 457.95728683 42.31115532 C457.95963906 43.03847582 457.9619913 43.76579632 457.96441481 44.51515684 C457.97110007 46.96534668 457.97064672 49.41548344 457.97023678 51.86568165 C457.9735357 53.63495923 457.97726133 55.40423606 457.98137826 57.17351192 C457.99140321 62.04591565 457.99511585 66.91830705 457.99776757 71.79071963 C458.00166916 77.04176618 458.01124762 82.29280295 458.01998043 87.54384327 C458.03974915 100.23051014 458.04981167 112.91717781 458.05870822 125.60385624 C458.06309054 131.57712777 458.0684575 137.55039841 458.07369709 143.52366924 C458.09070994 163.37841991 458.10520427 183.23317003 458.11244583 203.08792686 C458.11435575 208.24113497 458.11627608 213.39434307 458.11823177 218.54755116 C458.11871551 219.82836809 458.11919925 221.10918502 458.11969765 222.42881458 C458.12799852 243.17870659 458.15333617 263.92854096 458.18581245 284.6784078 C458.21887783 305.97819245 458.23689413 327.2779478 458.24009007 348.57775825 C458.24225567 360.53827674 458.25101166 372.49871119 458.27655125 384.45920467 C458.2982511 394.64508742 458.30631215 404.8308657 458.29658446 415.01676894 C458.29203771 420.21304989 458.29394803 425.40911528 458.31334591 430.60536671 C458.33096326 435.36581031 458.32999132 440.12588085 458.31444862 444.88632833 C458.31207039 446.60510558 458.31640724 448.32390857 458.32827727 450.04264648 C458.4233062 464.71572933 455.8835459 476.49293306 445.60040951 487.51703358 C436.91677878 495.85662188 427.65908823 500.25189862 415.64613152 500.26844215 C414.55515077 500.2719705 414.55515077 500.2719705 413.44213 500.27557012 C410.99194015 500.28225539 408.54180339 500.28180204 406.09160519 500.2813921 C404.32232761 500.28469102 402.55305078 500.28841665 400.78377491 500.29253358 C395.91137119 500.30255853 391.03897978 500.30627117 386.16656721 500.30892289 C380.91552066 500.31282448 375.66448388 500.32240294 370.41344357 500.33113575 C357.7267767 500.35090447 345.04010902 500.36096699 332.3534306 500.36986354 C326.38015907 500.37424586 320.40688842 500.37961282 314.43361759 500.38485241 C294.57886692 500.40186526 274.72411681 500.41635959 254.86935997 500.42360115 C249.71615187 500.42551107 244.56294377 500.4274314 239.40973568 500.42938709 C237.48851028 500.4301127 237.48851028 500.4301127 235.52847225 500.43085297 C214.77858024 500.43915384 194.02874588 500.46449149 173.27887904 500.49696777 C151.97909439 500.53003315 130.67933904 500.54804945 109.37952858 500.55124539 C97.41901009 500.55341099 85.45857565 500.56216698 73.49808216 500.58770657 C63.31219942 500.60940642 53.12642113 500.61746747 42.94051789 500.60773978 C37.74423694 500.60319302 32.54817156 500.60510335 27.35192013 500.62450123 C22.59147653 500.64211858 17.83140599 500.64114664 13.0709585 500.62560394 C11.35218125 500.62322571 9.63337827 500.62756256 7.91464036 500.63943259 C-6.7584425 500.73446152 -18.53564622 498.19470122 -29.55974674 487.91156483 C-37.89933505 479.2279341 -42.29461179 469.97024355 -42.31115532 457.95728683 C-42.31350755 457.22996633 -42.31585978 456.50264583 -42.31828329 455.75328532 C-42.32496855 453.30309547 -42.32451521 450.85295871 -42.32410526 448.40276051 C-42.32740418 446.63348293 -42.33112981 444.8642061 -42.33524674 443.09493023 C-42.34527169 438.22252651 -42.34898434 433.3501351 -42.35163605 428.47772253 C-42.35553765 423.22667598 -42.3651161 417.9756392 -42.37384892 412.72459888 C-42.39361764 400.03793201 -42.40368015 387.35126434 -42.41257671 374.66458592 C-42.41695902 368.69131439 -42.42232599 362.71804374 -42.42756557 356.74477291 C-42.44457842 336.89002224 -42.45907275 317.03527213 -42.46631432 297.18051529 C-42.46822423 292.02730719 -42.47014456 286.87409909 -42.47210026 281.720891 C-42.47282587 279.7996656 -42.47282587 279.7996656 -42.47356614 277.83962757 C-42.48186701 257.08973556 -42.50720465 236.33990119 -42.53968094 215.59003436 C-42.57274632 194.29024971 -42.59076262 172.99049435 -42.59395856 151.6906839 C-42.59612415 139.73016541 -42.60488014 127.76973097 -42.63041973 115.80923748 C-42.65211959 105.62335474 -42.66018063 95.43757645 -42.65045295 85.25167321 C-42.64590619 80.05539226 -42.64781652 74.85932688 -42.66721439 69.66307545 C-42.68483175 64.90263185 -42.6838598 60.1425613 -42.6683171 55.38211382 C-42.66593887 53.66333657 -42.67027573 51.94453359 -42.68214575 50.22579568 C-42.77717468 35.55271282 -40.23741438 23.7755091 -29.95427799 12.75140858 C-21.27064726 4.41182027 -12.01295672 0.01654353 0 0 Z " fill="#8560A8" transform="translate(48.176934242248535,5.865778923034668)"/>
<path d="M0 0 C4.04770554 1.61341346 6.74870137 4.48747163 9.74658203 7.53540039 C10.30966064 8.09979324 10.87273926 8.6641861 11.45288086 9.24568176 C13.309168 11.10844936 15.15837932 12.97808579 17.0078125 14.84765625 C18.29716898 16.14328387 19.58704245 17.43839719 20.87741089 18.73301697 C24.27076631 22.13966881 27.658508 25.5518444 31.04467773 28.96563721 C36.47068811 34.43478949 41.90345364 39.89721155 47.33944321 45.35644341 C49.2396852 47.26693121 51.13649099 49.18078295 53.0329895 51.09498596 C54.19261397 52.26143607 55.35234719 53.42777807 56.51220703 54.59399414 C57.04107513 55.12959961 57.56994324 55.66520508 58.11483765 56.21704102 C60.79694885 58.95202486 60.79694885 58.95202486 64 61 C64 61.66 64 62.32 64 63 C64.67546875 63.10957031 65.3509375 63.21914062 66.046875 63.33203125 C67.38492188 63.56986328 67.38492188 63.56986328 68.75 63.8125 C70.07257813 64.03873047 70.07257813 64.03873047 71.421875 64.26953125 C74.30451012 65.08627787 75.81237649 65.96257682 78 68 C78.49909532 70.10795408 78.49909532 70.10795408 78.49777794 72.5958643 C78.50697553 73.54460424 78.51617312 74.49334419 78.52564943 75.47083384 C78.51021874 77.03735017 78.51021874 77.03735017 78.49447632 78.63551331 C78.49930515 79.74330814 78.50413398 80.85110297 78.50910914 81.99246734 C78.52042755 85.72381134 78.50302437 89.45447724 78.48583984 93.18579102 C78.48798452 95.85292336 78.49169956 98.52001095 78.49734497 101.18713379 C78.50743778 107.69062205 78.49613513 114.19390721 78.47764437 120.69737024 C78.45689829 128.26544388 78.45701615 135.83347334 78.45798953 143.40157007 C78.45899124 156.9011385 78.44065461 170.40061223 78.41162109 183.90014648 C78.38343971 197.01019008 78.36927975 210.12015031 78.37060547 223.23022461 C78.37068538 224.03778143 78.37076529 224.84533826 78.37084763 225.6773665 C78.37092834 226.48350462 78.37100905 227.28964273 78.3710922 228.12020928 C78.37247071 243.03086305 78.36069922 257.9414813 78.34278577 272.85212358 C78.33674471 278.13213039 78.33462566 283.41213069 78.33372116 288.69214058 C78.33235904 295.1226389 78.32345972 301.55307736 78.30505554 307.98355026 C78.29580078 311.26680162 78.29079495 314.54996051 78.29224396 317.83322716 C78.29321893 321.38607 78.28197776 324.93866226 78.26742554 328.49147034 C78.27052274 329.53804528 78.27361995 330.58462023 78.276811 331.66290957 C78.26713767 333.08210787 78.26713767 333.08210787 78.25726891 334.52997684 C78.25586006 335.35082486 78.25445121 336.17167288 78.25299966 337.01739508 C78 339 78 339 76 341 C73.34708243 341.17510386 70.80013826 341.23155483 68.1484375 341.1953125 C67.37440582 341.1924826 66.60037415 341.18965271 65.80288696 341.18673706 C63.32676843 341.17552754 60.8510095 341.15042203 58.375 341.125 C56.69792188 341.11497118 55.02083811 341.10584516 53.34375 341.09765625 C49.22902777 341.07558574 45.11457489 341.04105102 41 341 C41.32162109 341.74838135 41.64324219 342.4967627 41.97460938 343.26782227 C45.14685279 351.72034037 43.81577244 362.21870648 40.5625 370.4375 C35.45881706 380.84805699 28.32995662 387.86046493 18 393 C17.39027344 393.33902344 16.78054688 393.67804688 16.15234375 394.02734375 C8.09124455 397.87186798 -3.51796643 397.18142249 -11.8125 394.5 C-21.64017728 390.14452061 -29.53429308 382.9130213 -36.98908997 375.3245697 C-37.82321637 374.48806761 -38.65734278 373.65156551 -39.51674575 372.78971487 C-41.80035041 370.49672976 -44.07708366 368.19717989 -46.35099447 365.89458907 C-48.81629163 363.40169226 -51.29060012 360.91776751 -53.76391602 358.43283081 C-58.03859167 354.1359549 -62.30809038 349.83399232 -66.57441139 345.52882195 C-73.31688496 338.72564222 -80.0739666 331.93707456 -86.83317566 325.15052795 C-89.14937655 322.82457181 -91.46545699 320.49849576 -93.78148174 318.17236423 C-94.6493225 317.30073736 -94.6493225 317.30073736 -95.53469539 316.41150187 C-102.10301508 309.81400168 -108.66768667 303.212876 -115.23120117 296.6105957 C-115.83050159 296.00776261 -116.42980201 295.40492951 -117.04726305 294.78382874 C-126.78369438 284.98942048 -136.51215028 275.18711654 -146.23907164 265.38326531 C-156.23638215 255.30757009 -166.24709347 245.24531691 -176.26915282 235.19423872 C-182.44645447 228.9979966 -188.61224749 222.79072482 -194.76376411 216.5688811 C-198.97282824 212.31349591 -203.19438179 208.07077792 -207.42610452 203.83792543 C-209.8683662 201.39418961 -212.30445275 198.94500969 -214.72559929 196.48033714 C-217.34988143 193.81475536 -219.99464438 191.17136325 -222.64582825 188.53257751 C-223.41071039 187.74525913 -224.17559252 186.95794074 -224.96365291 186.14676422 C-228.93527288 181.98693742 -228.93527288 181.98693742 -234.33146191 180.99576664 C-235.21207948 181.32716365 -236.09269705 181.65856066 -237 182 C-261.68159666 186.32955025 -286.04617273 184.37875187 -307.3125 170.04296875 C-312.5585923 166.05502358 -317.31130635 161.62293357 -322 157 C-323.11568359 155.90365234 -323.11568359 155.90365234 -324.25390625 154.78515625 C-332.795562 145.80889571 -338.27410378 134.72029491 -342 123 C-342.28617187 122.1853125 -342.57234375 121.370625 -342.8671875 120.53125 C-347.51818255 107.2426927 -348.39417394 88.30562905 -343 75 C-339.41685609 76.50873893 -337.237482 78.5835418 -334.57373047 81.38964844 C-333.70537567 82.2968866 -332.83702087 83.20412476 -331.94235229 84.13885498 C-331.25260126 84.86529331 -331.25260126 84.86529331 -330.54891586 85.60640717 C-328.09828927 88.17897123 -325.61661236 90.72141098 -323.140625 93.26953125 C-319.99712806 96.50883466 -316.86339898 99.75617974 -313.76074219 103.03466797 C-311.24705355 105.68917168 -308.70477608 108.3131122 -306.14120865 110.91944122 C-305.17260625 111.91515789 -304.21490282 112.92160264 -303.26885605 113.93877411 C-298.22758339 119.7198327 -298.22758339 119.7198327 -291.35289001 122.19946289 C-288.75553199 121.7011019 -286.46209334 120.95645445 -284 120 C-282.2207312 119.58524414 -282.2207312 119.58524414 -280.40551758 119.16210938 C-279.32939209 118.89205078 -278.2532666 118.62199219 -277.14453125 118.34375 C-275.34532227 117.89322266 -275.34532227 117.89322266 -273.50976562 117.43359375 C-272.28966797 117.12550781 -271.06957031 116.81742187 -269.8125 116.5 C-268.58080078 116.19191406 -267.34910156 115.88382812 -266.08007812 115.56640625 C-258.95261414 113.78647146 -258.95261414 113.78647146 -251.88671875 111.78125 C-249 111 -249 111 -245 111 C-244.82984375 110.16339844 -244.6596875 109.32679688 -244.484375 108.46484375 C-242.28831587 97.91675124 -239.62383203 87.53135376 -236.59765625 77.19140625 C-236.36353027 76.38026367 -236.1294043 75.56912109 -235.88818359 74.73339844 C-235.42974764 73.14947825 -234.9629456 71.56794958 -234.48681641 69.98925781 C-232.97549339 64.95329659 -232.97549339 64.95329659 -234 60 C-235.93559689 57.62862569 -235.93559689 57.62862569 -238.42797852 55.23144531 C-238.88654236 54.77244339 -239.3451062 54.31344147 -239.81756592 53.8405304 C-241.33100888 52.329173 -242.85479014 50.82871211 -244.37890625 49.328125 C-245.43188162 48.2807464 -246.48419543 47.23270231 -247.53587341 46.184021 C-250.30269969 43.42863705 -253.0784171 40.68238176 -255.8560791 37.93792725 C-258.69007411 35.13464618 -261.51557253 32.32283007 -264.34179688 29.51171875 C-269.88624795 23.99942104 -275.44011909 18.49673895 -281 13 C-278.11487458 10.11487458 -274.88995985 10.27848319 -271 9.875 C-270.22760986 9.7915332 -269.45521973 9.70806641 -268.65942383 9.62207031 C-245.92636461 7.2850937 -222.50104843 13.37709868 -204.19042969 27.38427734 C-194.26738721 35.4993778 -185.75195497 45.49609005 -180 57 C-180 57.66 -180 58.32 -180 59 C-160.89738347 60.60414786 -141.78589102 61.61803118 -122.625 62.125 C-121.92446786 62.14424105 -121.22393572 62.1634821 -120.50217533 62.18330622 C-73.10199854 63.52317284 -73.10199854 63.52317284 -32.69064331 41.16522217 C-28.68271182 37.28732697 -24.98405082 33.1861629 -21.375 28.9375 C-20.49132122 27.89845394 -20.49132122 27.89845394 -19.58979034 26.83841705 C-12.42388314 18.30692551 -5.93230338 9.43005636 0 0 Z " fill="#9D76BE" transform="translate(397,58)"/>
<path d="M0 0 C-1.08760602 7.14099219 -2.79714956 13.86440197 -4.9921875 20.7421875 C-6.54910659 25.77501898 -7.76821599 30.87977348 -9 36 C-9.53873019 38.20905153 -10.08033682 40.41740382 -10.625 42.625 C-10.86476563 43.60726562 -11.10453125 44.58953125 -11.3515625 45.6015625 C-12 48 -12 48 -13 50 C-15.03100586 50.69848633 -15.03100586 50.69848633 -17.71484375 51.33203125 C-18.70299072 51.57091064 -19.6911377 51.80979004 -20.70922852 52.0559082 C-21.77455811 52.3055835 -22.8398877 52.55525879 -23.9375 52.8125 C-26.13330781 53.34169901 -28.32861723 53.87297005 -30.5234375 54.40625 C-31.6175293 54.67179687 -32.71162109 54.93734375 -33.83886719 55.2109375 C-38.99419818 56.49777947 -44.10195165 57.94552814 -49.20092773 59.4387207 C-53.48060826 60.66820506 -57.54608055 61.7796771 -62 62 C-64.61262512 60.34268188 -64.61262512 60.34268188 -67.07739258 57.81494141 C-67.53362 57.35827591 -67.98984741 56.90161041 -68.4598999 56.43110657 C-69.95774516 54.92262116 -71.42538047 53.38796339 -72.89453125 51.8515625 C-73.93165266 50.79697023 -74.97063811 49.74420816 -76.01139832 48.69320679 C-78.74268613 45.92575875 -81.44953207 43.13559228 -84.15148926 40.33953857 C-87.44252811 36.9424425 -90.76081796 33.57200537 -94.07579327 30.19829369 C-96.65348877 27.57409314 -99.22663862 24.94590458 -101.7870636 22.30484009 C-102.70529404 21.36071259 -103.62352448 20.41658508 -104.56958008 19.44384766 C-105.37897537 18.60810211 -106.18837067 17.77235657 -107.02229309 16.9112854 C-108.85798929 14.94601322 -108.85798929 14.94601322 -111 14 C-113.12463017 29.32768911 -114.76892724 43.97376805 -110 59 C-109.7215625 59.97324219 -109.443125 60.94648438 -109.15625 61.94921875 C-102.65426969 83.38893831 -88.09787426 100.7593513 -68.78125 111.84765625 C-55.97118838 118.64218218 -42.51753188 122.20266472 -27.9375 122.1875 C-27.20233154 122.18741943 -26.46716309 122.18733887 -25.7097168 122.18725586 C-17.87367464 122.10699451 -9.71059548 121.54153503 -2.23406029 119.09485054 C1.33510699 118.99017177 1.68556598 119.16867743 4.23706627 121.37293816 C5.44119078 122.5462789 6.62611411 123.73950752 7.79574585 124.94723511 C8.78348824 125.92494769 8.78348824 125.92494769 9.79118502 126.92241204 C12.00066132 129.1179802 14.18414748 131.33771062 16.36865234 133.55810547 C17.94437635 135.13416682 19.52163407 136.70869607 21.10031128 138.28179932 C25.38846496 142.5636597 29.65457617 146.86689349 33.91701841 151.17432928 C38.37311866 155.67039895 42.84858393 160.14710768 47.32192993 164.62600708 C54.83014588 172.14894852 62.32564233 179.68433882 69.81201172 187.22900391 C77.52192953 194.99890294 85.24055143 202.75999633 92.97021484 210.51025391 C93.4465578 210.98787052 93.92290075 211.46548713 94.41367833 211.95757698 C96.32815032 213.87711402 98.24266107 215.79661239 100.15722873 217.71605401 C108.84682176 226.42809296 117.52964841 235.14687481 126.2109375 243.8671875 C127.09467655 244.75483213 127.97841559 245.64247676 128.88893461 246.55701971 C133.95796972 251.64932995 139.02399964 256.74459728 144.08552933 261.84436798 C145.62305641 263.39285418 147.16142974 264.94050062 148.70068359 266.48727036 C150.79155796 268.58876308 152.87929935 270.69331622 154.96615601 272.79879761 C155.58461501 273.41911861 156.20307402 274.03943962 156.84027421 274.67855823 C161 278.88567791 161 278.88567791 161 280 C160.08301268 280.00054477 159.16602535 280.00108953 158.22125053 280.00165081 C135.91231896 280.01661594 113.6035873 280.05905196 91.29476738 280.13209057 C80.5063844 280.16674855 69.71812931 280.19209716 58.9296875 280.19555664 C49.52682976 280.1985954 40.12419972 280.2190741 30.72142994 280.26052457 C25.74234426 280.28186418 20.76358237 280.2944502 15.78445053 280.28615379 C11.09754293 280.27861979 6.41129176 280.29440991 1.72450447 280.32806015 C0.00483319 280.33630128 -1.71490327 280.33603409 -3.43456841 280.32659721 C-5.78479892 280.31497731 -8.13287731 280.33408669 -10.48294067 280.36076355 C-11.79741747 280.36352893 -13.11189426 280.36629431 -14.46620369 280.36914349 C-20.18888926 281.39076249 -22.87570623 284.48645494 -26.32421875 289.12890625 C-26.70255859 289.68271973 -27.08089844 290.2365332 -27.47070312 290.80712891 C-33.84558273 300.0036346 -41.9320877 305.00043264 -51.48730469 310.52783203 C-55.59833374 312.93645088 -59.60586766 315.50457013 -63.625 318.0625 C-64.40238525 318.55081299 -65.17977051 319.03912598 -65.98071289 319.54223633 C-69.97057385 322.05070709 -73.92203909 324.60290832 -77.83203125 327.234375 C-78.99387939 328.00962524 -78.99387939 328.00962524 -80.17919922 328.80053711 C-81.6502833 329.78544778 -83.11457959 330.78059771 -84.57080078 331.78735352 C-89.48949754 335.06829703 -89.48949754 335.06829703 -92.0949707 334.71972656 C-94.59836131 333.77393706 -95.91952649 332.37357775 -97.75 330.4375 C-98.36359375 329.79683594 -98.9771875 329.15617187 -99.609375 328.49609375 C-100.29773438 327.75552734 -100.29773438 327.75552734 -101 327 C-99.2914447 321.82224399 -96.24086848 317.56616848 -93.25 313.0625 C-92.08362384 311.28842507 -90.91829962 309.51365819 -89.75390625 307.73828125 C-89.14434082 306.80967285 -88.53477539 305.88106445 -87.90673828 304.92431641 C-82.52369169 296.66847363 -77.2803502 288.321724 -72 280 C-72.63004944 280.00888245 -73.26009888 280.01776489 -73.90924072 280.0269165 C-80.46267633 280.11536271 -87.0159426 280.17572306 -93.56982422 280.21972656 C-96.01618333 280.23985052 -98.46249429 280.2671526 -100.90869141 280.30175781 C-104.42362341 280.35023963 -107.93791984 280.37296128 -111.453125 280.390625 C-112.5480426 280.41127014 -113.64296021 280.43191528 -114.77105713 280.45318604 C-115.79181335 280.45348816 -116.81256958 280.45379028 -117.86425781 280.45410156 C-118.76138489 280.46298401 -119.65851196 280.47186646 -120.58282471 280.48101807 C-124.03735799 279.79356568 -124.93434376 278.88764062 -127 276 C-127.61316934 272.49163006 -127.53902379 269.00789151 -127.50793457 265.45423889 C-127.51417453 264.36812409 -127.5204145 263.2820093 -127.52684355 262.16298193 C-127.54284276 258.5108612 -127.53014162 254.85940149 -127.51757812 251.20727539 C-127.52299617 248.59413767 -127.53011703 245.981003 -127.53881836 243.36787415 C-127.55661993 236.99922325 -127.55275623 230.63076076 -127.5411678 224.26210243 C-127.53213935 219.08630915 -127.53090691 213.91056872 -127.53526306 208.73476982 C-127.53587599 207.99850931 -127.53648893 207.26224879 -127.53712043 206.50367735 C-127.53839932 205.00803013 -127.53969617 203.51238292 -127.5410108 202.01673573 C-127.55242159 187.98633383 -127.53929551 173.95603642 -127.51780933 159.92565166 C-127.49994159 147.8853593 -127.50303877 135.84522121 -127.52148438 123.80493164 C-127.54288872 109.82677098 -127.55131899 95.84870196 -127.53903532 81.87052721 C-127.53776111 80.38003347 -127.53650363 78.88953971 -127.53526306 77.39904594 C-127.53464596 76.66567612 -127.53402886 75.9323063 -127.53339306 75.17671316 C-127.52993856 70.00728798 -127.5357707 64.8379209 -127.54518127 59.66850471 C-127.55756904 52.71061099 -127.54875364 45.75301377 -127.52560425 38.79514885 C-127.52030529 36.23812215 -127.52185107 33.68107098 -127.53065491 31.12405396 C-127.54154663 27.63995012 -127.52792244 24.15678818 -127.50793457 20.67274475 C-127.51685746 19.65504519 -127.52578034 18.63734563 -127.53497362 17.58880669 C-127.48626189 13.22678085 -127.40500507 10.68429452 -125.14780045 6.87053299 C-122.25865542 4.35435832 -120.56477015 4.3943523 -116.76269531 4.43237305 C-114.87118744 4.43293953 -114.87118744 4.43293953 -112.94146729 4.43351746 C-111.57034311 4.45904876 -110.19922905 4.48512871 -108.828125 4.51171875 C-107.42137916 4.52104851 -106.01461704 4.52816386 -104.60784912 4.53315735 C-100.91175189 4.5522151 -97.21664282 4.60130299 -93.52093506 4.65667725 C-89.7471656 4.70789754 -85.97323589 4.73067718 -82.19921875 4.75585938 C-74.79902949 4.80942494 -67.39965339 4.89472038 -60 5 C-60 3.68 -60 2.36 -60 1 C-53.88886749 -2.19403119 -48.56750355 -2.5117187 -41.73828125 -2.6171875 C-40.67006638 -2.64225372 -39.6018515 -2.66731995 -38.50126648 -2.69314575 C-36.25318371 -2.7419423 -34.00493454 -2.78354383 -31.7565918 -2.81835938 C-28.31278482 -2.87499532 -24.87077692 -2.96337704 -21.42773438 -3.0546875 C-19.2396205 -3.09826223 -17.05146895 -3.13999272 -14.86328125 -3.1796875 C-13.83407059 -3.20763397 -12.80485992 -3.23558044 -11.74446106 -3.26437378 C-10.78634018 -3.27493805 -9.8282193 -3.28550232 -8.84106445 -3.29638672 C-8.0005806 -3.31176483 -7.16009674 -3.32714294 -6.29414368 -3.34298706 C-3.49043993 -2.92381797 -2.11062039 -1.84209464 0 0 Z " fill="#9E77BF" transform="translate(165,119)"/>
<path d="M0 0 C17.11653291 14.79357487 29.63487148 35.98316429 31.66357422 58.80712891 C32.09817916 67.26259227 32.11733684 75.88617326 29.8671875 84.10546875 C29.21570276 87.18838759 28.94239966 88.97378937 29.4296875 92.17578125 C31.70017335 95.35323662 34.48517071 97.98296078 37.27906799 100.69958496 C38.12350792 101.54421248 38.96794785 102.38884 39.83797687 103.25906229 C42.18545866 105.6011557 44.54562854 107.9289925 46.91201603 110.25189018 C49.46092935 112.76051927 51.99245404 115.28658442 54.52598572 117.81072998 C58.92022887 122.18422999 63.32492412 126.54696974 67.73648262 130.90299988 C74.12602842 137.21276903 80.49558996 143.54241433 86.85977709 149.87774879 C97.20037384 160.17103951 107.55172687 170.45343432 117.91235352 180.7265625 C118.53256522 181.34154502 119.15277691 181.95652753 119.79178291 182.59014589 C126.0755808 188.82068635 132.36052717 195.05006737 138.64630688 201.27860841 C141.7758051 204.37962232 144.90516204 207.48077875 148.03442383 210.58203125 C148.96042972 211.49973589 148.96042972 211.49973589 149.90514279 212.43598002 C160.22007953 222.65926029 170.52118891 232.89636016 180.81221336 243.14370966 C187.15428884 249.4576078 193.5081948 255.7591248 199.87812393 262.04492337 C204.24993469 266.3606374 208.60899341 270.68896113 212.95849443 275.02715772 C215.46386229 277.52514024 217.97450393 280.0171087 220.50116348 282.49356842 C245.52087837 307.03363717 245.52087837 307.03363717 245.8671875 324.98828125 C245.93954543 337.33517516 241.55769321 347.14770482 232.85546875 356.0546875 C229.0139911 359.41366071 224.98762858 361.90803717 220.4296875 364.17578125 C219.81996094 364.51480469 219.21023438 364.85382813 218.58203125 365.203125 C210.52093205 369.04764923 198.91172107 368.35720374 190.6171875 365.67578125 C180.78951022 361.32030186 172.89539442 354.08880255 165.44059753 346.50035095 C164.60647113 345.66384886 163.77234472 344.82734676 162.91294175 343.96549612 C160.62933709 341.67251101 158.35260384 339.37296114 156.07869303 337.07037032 C153.61339587 334.57747351 151.13908738 332.09354876 148.66577148 329.60861206 C144.39109583 325.31173615 140.12159712 321.00977357 135.85527611 316.7046032 C129.11280254 309.90142347 122.3557209 303.11285581 115.59651184 296.3263092 C113.28031095 294.00035306 110.96423051 291.67427701 108.64820576 289.34814548 C107.780365 288.47651861 107.780365 288.47651861 106.89499211 287.58728312 C100.32667242 280.98978293 93.76200083 274.38865725 87.19848633 267.78637695 C86.59918591 267.18354386 85.99988549 266.58071076 85.38242445 265.95960999 C75.64599312 256.16520173 65.91753722 246.36289779 56.19061586 236.55904656 C46.19330535 226.48335134 36.18259403 216.42109816 26.16053468 206.37001997 C19.98323303 200.17377785 13.81744001 193.96650607 7.66592339 187.74466235 C3.45685926 183.48927716 -0.76469429 179.24655917 -4.99641702 175.01370668 C-7.4386787 172.56997086 -9.87476525 170.12079094 -12.29591179 167.65611839 C-14.92019393 164.99053661 -17.56495688 162.3471445 -20.21614075 159.70835876 C-20.98102289 158.92104038 -21.74590502 158.13372199 -22.53396541 157.32254547 C-26.50558538 153.16271867 -26.50558538 153.16271867 -31.90177441 152.17154789 C-32.78239198 152.5029449 -33.66300955 152.83434191 -34.5703125 153.17578125 C-59.25190916 157.5053315 -83.61648523 155.55453312 -104.8828125 141.21875 C-110.1289048 137.23080483 -114.88161885 132.79871482 -119.5703125 128.17578125 C-120.68599609 127.07943359 -120.68599609 127.07943359 -121.82421875 125.9609375 C-130.3658745 116.98467696 -135.84441628 105.89607616 -139.5703125 94.17578125 C-139.85648438 93.36109375 -140.14265625 92.54640625 -140.4375 91.70703125 C-145.08849505 78.41847395 -145.96448644 59.4814103 -140.5703125 46.17578125 C-136.98716859 47.68452018 -134.8077945 49.75932305 -132.14404297 52.56542969 C-131.27568817 53.47266785 -130.40733337 54.37990601 -129.51266479 55.31463623 C-128.82291376 56.04107456 -128.82291376 56.04107456 -128.11922836 56.78218842 C-125.66860177 59.35475248 -123.18692486 61.89719223 -120.7109375 64.4453125 C-117.56744056 67.68461591 -114.43371148 70.93196099 -111.33105469 74.21044922 C-108.81736605 76.86495293 -106.27508858 79.48889345 -103.71152115 82.09522247 C-102.74291875 83.09093914 -101.78521532 84.09738389 -100.83916855 85.11455536 C-95.79789589 90.89561395 -95.79789589 90.89561395 -88.92320251 93.37524414 C-86.32584449 92.87688315 -84.03240584 92.1322357 -81.5703125 91.17578125 C-79.7910437 90.76102539 -79.7910437 90.76102539 -77.97583008 90.33789062 C-76.89970459 90.06783203 -75.8235791 89.79777344 -74.71484375 89.51953125 C-72.91563477 89.06900391 -72.91563477 89.06900391 -71.08007812 88.609375 C-69.85998047 88.30128906 -68.63988281 87.99320312 -67.3828125 87.67578125 C-66.15111328 87.36769531 -64.91941406 87.05960937 -63.65039062 86.7421875 C-56.52292664 84.96225271 -56.52292664 84.96225271 -49.45703125 82.95703125 C-46.5703125 82.17578125 -46.5703125 82.17578125 -42.5703125 82.17578125 C-42.40015625 81.33917969 -42.23 80.50257813 -42.0546875 79.640625 C-39.85862837 69.09253249 -37.19414453 58.70713501 -34.16796875 48.3671875 C-33.93384277 47.55604492 -33.6997168 46.74490234 -33.45849609 45.90917969 C-33.00006014 44.3252595 -32.5332581 42.74373083 -32.05712891 41.16503906 C-30.54580589 36.12907784 -30.54580589 36.12907784 -31.5703125 31.17578125 C-33.50590939 28.80440694 -33.50590939 28.80440694 -35.99829102 26.40722656 C-36.45685486 25.94822464 -36.9154187 25.48922272 -37.38787842 25.01631165 C-38.90132138 23.50495425 -40.42510264 22.00449336 -41.94921875 20.50390625 C-43.00219412 19.45652765 -44.05450793 18.40848356 -45.10618591 17.35980225 C-47.87301219 14.6044183 -50.6487296 11.85816301 -53.4263916 9.1137085 C-56.26038661 6.31042743 -59.08588503 3.49861132 -61.91210938 0.6875 C-67.45656045 -4.82479771 -73.01043159 -10.3274798 -78.5703125 -15.82421875 C-75.68518708 -18.70934417 -72.46027235 -18.54573556 -68.5703125 -18.94921875 C-67.79792236 -19.03268555 -67.02553223 -19.11615234 -66.22973633 -19.20214844 C-42.80821837 -21.60989916 -18.41302326 -15.05823782 0 0 Z " fill="#FEFEFE" transform="translate(194.5703125,86.82421875)"/>
<path d="M0 0 C3.97863507 1.83997533 6.70216899 4.44016243 9.74658203 7.53540039 C10.30966064 8.09979324 10.87273926 8.6641861 11.45288086 9.24568176 C13.309168 11.10844936 15.15837932 12.97808579 17.0078125 14.84765625 C18.29716898 16.14328387 19.58704245 17.43839719 20.87741089 18.73301697 C24.27076631 22.13966881 27.658508 25.5518444 31.04467773 28.96563721 C36.47068811 34.43478949 41.90345364 39.89721155 47.33944321 45.35644341 C49.2396852 47.26693121 51.13649099 49.18078295 53.0329895 51.09498596 C54.19261397 52.26143607 55.35234719 53.42777807 56.51220703 54.59399414 C57.04107513 55.12959961 57.56994324 55.66520508 58.11483765 56.21704102 C60.79694885 58.95202486 60.79694885 58.95202486 64 61 C62.48459557 64.53733667 60.41641205 66.86440652 57.73582458 69.60562134 C56.84050018 70.52537247 55.94517578 71.4451236 55.02272034 72.39274597 C54.02758827 73.40472198 53.03229789 74.41654232 52.03686523 75.42822266 C50.98995453 76.49913234 49.94337254 77.57036345 48.89709473 78.64189148 C45.45946753 82.15770898 42.01044975 85.66221981 38.55859375 89.1640625 C37.67592768 90.05953899 37.67592768 90.05953899 36.77542996 90.97310591 C31.21776413 96.60926635 25.65462355 102.23998643 20.08103848 107.86040688 C12.9698804 115.03228644 5.88456875 122.22774897 -1.16791493 129.4573456 C-6.13796414 134.5479007 -11.13679129 139.60906599 -16.15724415 144.64991224 C-19.15005483 147.65648352 -22.12900605 150.67421621 -25.07736397 153.72444534 C-27.85772767 156.59969426 -30.6724313 159.43648869 -33.51599884 162.24920082 C-34.5460946 163.28022054 -35.56371595 164.32390297 -36.56650352 165.38150215 C-43.96189787 173.15890923 -49.80874574 175.26372273 -60.18095303 175.71860313 C-64.46401107 176.03418949 -67.49964344 177.08804363 -71.23828125 179.09765625 C-73.22873794 180.11715846 -74.77491509 180.70836897 -77 181 C-78.61230469 179.93945313 -78.61230469 179.93945313 -80.171875 178.28125 C-80.75453125 177.67796875 -81.3371875 177.0746875 -81.9375 176.453125 C-82.535625 175.80859375 -83.13375 175.1640625 -83.75 174.5 C-87.32799793 170.73201988 -90.87982079 167.03667537 -94.828125 163.65234375 C-99.80498665 159.37561687 -104.38544673 154.72312792 -109 150.0625 C-109.87011719 149.18787109 -110.74023438 148.31324219 -111.63671875 147.41210938 C-113.76013549 145.27702551 -115.88116378 143.13962795 -118 141 C-117.04404568 138.58204194 -116.09373474 136.1945438 -114.96484375 133.8515625 C-112.55690205 128.63282954 -111.9160282 124.6473736 -112.02284241 118.89170837 C-111.72077966 109.79701714 -106.93014015 105.03004289 -100.69702148 99.10766602 C-99.60028194 98.01488383 -98.50663244 96.91899308 -97.41583252 95.82028198 C-94.4692167 92.86967697 -91.48171423 89.96400978 -88.4844768 87.06496167 C-85.35096589 84.0194462 -82.25750546 80.93376958 -79.15943909 77.85227966 C-73.29748048 72.03369691 -67.40078922 66.25169877 -61.49051291 60.48224634 C-54.75916317 53.90781587 -48.06790289 47.29320374 -41.37958038 40.6750499 C-27.63027398 27.07176603 -13.83185166 13.51931765 0 0 Z " fill="#FEFEFE" transform="translate(397,58)"/>
<path d="M0 0 C39.6 0 79.2 0 120 0 C116.40058486 4.19931767 113.15931918 7.95654945 109.20385742 11.6875 C107.85797798 12.96548462 107.85797798 12.96548462 106.48490906 14.26928711 C105.53469376 15.17042236 104.58447845 16.07155762 103.60546875 17 C101.04961667 19.4598674 98.50382645 21.93012952 95.95720959 24.39955139 C93.31218815 26.96031217 90.65588071 29.5068876 87.97192383 32.02685547 C85.35304933 34.48716353 82.77109088 36.98144206 80.20943642 39.5012207 C78.77026555 40.89885188 77.29564022 42.25968158 75.82035828 43.61914062 C70.57381016 48.84018413 68.46224282 52.27983449 68.05200195 59.7734375 C68.07672073 60.98821777 68.10143951 62.20299805 68.12690735 63.45458984 C67.95016008 68.39237767 66.19949139 72.12682076 64.05859375 76.51171875 C62.73901527 79.162775 62.73901527 79.162775 63 83 C65.01601225 85.58826686 65.01601225 85.58826686 67.75 88.17578125 C68.24153564 88.66402878 68.73307129 89.15227631 69.23950195 89.65531921 C70.81721174 91.21728243 72.40849883 92.7646049 74 94.3125 C75.04122593 95.34222872 76.0816001 96.37281947 77.12109375 97.40429688 C82.06373798 102.28738645 87.08056941 107.04980745 92.35546875 111.57592773 C94.49075632 113.42496758 96.50706631 115.37415785 98.5 117.375 C99.50546875 118.37660156 99.50546875 118.37660156 100.53125 119.3984375 C102 121 102 121 102 122 C89.2865141 124.5796842 73.27038891 127.63745129 61.52874756 120.6239624 C51.50204685 113.69766223 43.31024987 104.37067805 35.19250488 95.37426758 C32.49474351 92.43194202 29.70732173 89.58355414 26.91286755 86.73336315 C23.56472378 83.30928731 20.27098159 79.83480928 16.98046875 76.35546875 C16.35690176 75.70515371 15.73333477 75.05483868 15.09087181 74.38481712 C5.37741638 64.14701325 5.37741638 64.14701325 4.47143555 58.9931488 C4.70215491 56.46211676 5.16423103 54.39025248 6 52 C8.90681271 35.5491252 7.60619862 18.0702253 0 3 C0 2.01 0 1.02 0 0 Z " fill="#BA94CF" transform="translate(218,117)"/>
<path d="M0 0 C3.29029485 1.64514743 4.75202692 2.51238227 7.1640625 5.00390625 C7.72867188 5.57947266 8.29328125 6.15503906 8.875 6.74804688 C9.4525 7.34681641 10.03 7.94558594 10.625 8.5625 C11.78160151 9.75349384 12.94035778 10.94240005 14.1015625 12.12890625 C14.86460693 12.91890015 14.86460693 12.91890015 15.64306641 13.72485352 C16.99400105 15.1164217 16.99400105 15.1164217 19 16 C17.71403737 18.82384367 16.37292429 20.87568428 14.177948 23.06256104 C13.60303619 23.64022217 13.02812439 24.2178833 12.43579102 24.81304932 C11.80713135 25.43451843 11.17847168 26.05598755 10.53076172 26.69628906 C9.86722687 27.36011597 9.20369202 28.02394287 8.52005005 28.70788574 C6.3279703 30.89857333 4.12889375 33.08209364 1.9296875 35.265625 C0.40753361 36.78404837 -1.11417902 38.30291421 -2.63546753 39.82220459 C-6.63909255 43.8181963 -10.64868759 47.80814529 -14.6595459 51.796875 C-18.75190629 55.86877055 -22.83860529 59.94633926 -26.92578125 64.0234375 C-34.94498305 72.02119471 -42.97050181 80.01258103 -51 88 C-50.01 89.485 -50.01 89.485 -49 91 C-49.37098047 95.73488228 -52.94854496 98.87882338 -55.86328125 102.36328125 C-57.97388239 104.86489881 -57.97388239 104.86489881 -59.41796875 107.23046875 C-64.70814894 115.36578787 -73.28858963 119.58196974 -81.42285156 124.44726562 C-85.53051649 126.92213763 -89.57528572 129.49432742 -93.625 132.0625 C-94.79059448 132.79436523 -94.79059448 132.79436523 -95.97973633 133.54101562 C-99.96953617 136.05048048 -103.92163737 138.60263795 -107.83203125 141.234375 C-108.60659668 141.7512085 -109.38116211 142.26804199 -110.17919922 142.80053711 C-111.6502833 143.78544778 -113.11457959 144.78059771 -114.57080078 145.78735352 C-119.48949754 149.06829703 -119.48949754 149.06829703 -122.0949707 148.71972656 C-124.59836131 147.77393706 -125.91952649 146.37357775 -127.75 144.4375 C-128.36359375 143.79683594 -128.9771875 143.15617188 -129.609375 142.49609375 C-130.06828125 142.00238281 -130.5271875 141.50867188 -131 141 C-129.29143337 135.82220967 -126.24078282 131.56624124 -123.25 127.0625 C-122.07454024 125.27408162 -120.90009804 123.48499411 -119.7265625 121.6953125 C-119.11586914 120.76493164 -118.50517578 119.83455078 -117.87597656 118.87597656 C-114.75295076 114.08820405 -111.68817572 109.26370537 -108.625 104.4375 C-107.7882373 103.11987671 -107.7882373 103.11987671 -106.93457031 101.77563477 C-106.12004395 100.49257446 -106.12004395 100.49257446 -105.2890625 99.18359375 C-104.74918701 98.33925781 -104.20931152 97.49492187 -103.65307617 96.625 C-102.50453349 94.80117326 -101.38137695 92.96121162 -100.27856445 91.109375 C-96.77351392 85.31599996 -93.47526438 81.02535232 -87.9375 77.125 C-86.75851859 76.25340978 -85.58012793 75.38101986 -84.40234375 74.5078125 C-83.83112793 74.10079102 -83.25991211 73.69376953 -82.67138672 73.27441406 C-80.96554895 72.02440156 -80.96554895 72.02440156 -79.44189453 70.49902344 C-77.94140625 69.0546875 -77.94140625 69.0546875 -75 67 C-72.03 67.99 -72.03 67.99 -69 69 C-46.23 46.23 -23.46 23.46 0 0 Z " fill="#FDFCFD" transform="translate(195,305)"/>
<path d="M0 0 C-1.08760602 7.14099219 -2.79714956 13.86440197 -4.9921875 20.7421875 C-6.54910659 25.77501898 -7.76821599 30.87977348 -9 36 C-9.53873019 38.20905153 -10.08033682 40.41740382 -10.625 42.625 C-10.86476562 43.60726562 -11.10453125 44.58953125 -11.3515625 45.6015625 C-12 48 -12 48 -13 50 C-15.20556641 50.76196289 -15.20556641 50.76196289 -18.1015625 51.47265625 C-19.14957031 51.73240234 -20.19757813 51.99214844 -21.27734375 52.25976562 C-22.38207031 52.52466797 -23.48679688 52.78957031 -24.625 53.0625 C-25.70652344 53.33126953 -26.78804687 53.60003906 -27.90234375 53.87695312 C-33.26100443 55.18881084 -38.52581213 56.27229921 -44 57 C-44.01030746 56.37883301 -44.02061493 55.75766602 -44.03123474 55.11767578 C-44.13976366 48.62832088 -44.25432121 42.13909191 -44.37231445 35.64990234 C-44.4155152 33.23098394 -44.4572002 30.81203796 -44.49731445 28.39306641 C-44.55537845 24.90779321 -44.61896739 21.42265695 -44.68359375 17.9375 C-44.70030624 16.86322754 -44.71701874 15.78895508 -44.73423767 14.68212891 C-44.84443124 9.04431315 -45.17652338 3.57971344 -46 -2 C-40.0922989 -2.21718371 -34.18440171 -2.41401807 -28.27539062 -2.59204102 C-26.2654408 -2.65546019 -24.25565817 -2.72443223 -22.24609375 -2.79907227 C-19.35703121 -2.90541375 -16.46795544 -2.99175402 -13.578125 -3.07421875 C-12.68007141 -3.11157639 -11.78201782 -3.14893402 -10.85675049 -3.18742371 C-3.16079653 -3.37280117 -3.16079653 -3.37280117 0 0 Z " fill="#BA94CF" transform="translate(165,119)"/>
<path d="M0 0 C0.14849192 6.03219855 0.25728505 12.06333013 0.32958984 18.09692383 C0.35973452 20.14854466 0.40065836 22.2000369 0.45263672 24.2512207 C0.52555446 27.20295941 0.55947901 30.15299274 0.5859375 33.10546875 C0.61690521 34.02023483 0.64787292 34.93500092 0.67977905 35.87748718 C0.68209059 40.26666887 0.40662714 42.41662658 -2.15234375 46.08789062 C-7.35288277 49.57641147 -14.15513269 48.60735342 -20.1484375 48.48828125 C-21.52990434 48.4789454 -22.91138783 48.47183293 -24.2928772 48.46684265 C-27.91333435 48.44783272 -31.53277433 48.39878687 -35.15283203 48.34332275 C-38.85305016 48.29199859 -42.55343409 48.26930074 -46.25390625 48.24414062 C-53.50306582 48.19065961 -60.75138991 48.10542303 -68 48 C-65.3138811 45.11154244 -63.36730156 44.30111695 -59.5 43.375 C-58.5409375 43.13523438 -57.581875 42.89546875 -56.59375 42.6484375 C-53 42 -53 42 -50.59463501 42.03666687 C-43.18273821 42.00765544 -39.68748956 39.81996292 -34.52828979 34.63560486 C-33.69137604 33.74394119 -32.85446228 32.85227753 -31.9921875 31.93359375 C-31.10008575 31.02497086 -30.20798401 30.11634796 -29.28884888 29.18019104 C-26.9391935 26.77877461 -24.61338742 24.35847371 -22.29693604 21.92529297 C-19.92349383 19.44192484 -17.5238449 16.98418906 -15.125 14.52539062 C-12.43502297 11.76714135 -9.74915279 9.00601964 -7.08224487 6.22544861 C-6.29697418 5.40782547 -5.51170349 4.59020233 -4.70263672 3.74780273 C-4.00967499 3.02245834 -3.31671326 2.29711395 -2.60275269 1.54978943 C-1 0 -1 0 0 0 Z " fill="#BA94CF" transform="translate(392,190)"/>
<path d="M0 0 C4.52195935 2.60075584 7.68822305 5.25482181 9.91796875 10.0859375 C10.79607297 15.69772996 10.26315717 20.38176629 6.91796875 25.0859375 C3.19146174 28.89117353 -0.26899143 31.45373291 -5.70703125 31.7109375 C-11.51978616 31.27148524 -14.67966989 28.30538216 -18.95703125 24.5859375 C-21.92444016 20.78726746 -21.83526536 16.66220025 -21.6328125 12 C-20.76694011 7.41885953 -18.69679125 4.91488011 -15.08203125 2.0859375 C-10.22690607 -1.11637911 -5.54310916 -2.43356012 0 0 Z " fill="#8763AA" transform="translate(408.08203125,403.9140625)"/>
<path d="M0 0 C3.4375 0.5625 3.4375 0.5625 5.875 2.125 C7.9623128 5.38120797 7.7290423 7.77245016 7.4375 11.5625 C6.1175 11.2325 4.7975 10.9025 3.4375 10.5625 C3.4375 11.5525 3.4375 12.5425 3.4375 13.5625 C4.0975 13.8925 4.7575 14.2225 5.4375 14.5625 C2.905393 16.21810842 1.5041578 16.5638887 -1.5625 16.5 C-5.37016251 15.31010547 -6.54850012 13.97080749 -8.5625 10.5625 C-9.125 8.0625 -9.125 8.0625 -8.5625 5.5625 C-5.9053669 1.93913668 -4.47649461 0.70681494 0 0 Z " fill="#AA83C4" transform="translate(77.5625,370.4375)"/>
<path d="M0 0 C1.8125 0.375 1.8125 0.375 4 1 C4.7425 1.185625 5.485 1.37125 6.25 1.5625 C6.8275 1.706875 7.405 1.85125 8 2 C8 1.34 8 0.68 8 0 C9.98 0.66 11.96 1.32 14 2 C14 1.34 14 0.68 14 0 C18.29 0 22.58 0 27 0 C27 0.66 27 1.32 27 2 C27.69867188 1.96519531 28.39734375 1.93039062 29.1171875 1.89453125 C30.02726562 1.86746094 30.93734375 1.84039062 31.875 1.8125 C32.77992188 1.77769531 33.68484375 1.74289062 34.6171875 1.70703125 C35.79667969 1.85205078 35.79667969 1.85205078 37 2 C37.66 2.99 38.32 3.98 39 5 C20.19 4.67 1.38 4.34 -18 4 C-18 3.34 -18 2.68 -18 2 C-16.17662109 1.90912109 -16.17662109 1.90912109 -14.31640625 1.81640625 C-12.73175772 1.73201668 -11.14712298 1.6473679 -9.5625 1.5625 C-8.76005859 1.52318359 -7.95761719 1.48386719 -7.13085938 1.44335938 C-3.24760439 1.5945704 -3.24760439 1.5945704 0 0 Z " fill="#936DBD" transform="translate(351,281)"/>
<path d="M0 0 C2.59880781 1.29940391 3.54814423 0.74335617 6.3125 0 C9.95930199 -0.88247933 12.33348595 -0.9428179 16 0 C16.680625 -0.185625 17.36125 -0.37125 18.0625 -0.5625 C20 -1 20 -1 22.1875 -0.1875 C24 1 24 1 25 3 C9.16 3 -6.68 3 -23 3 C-22.67 1.68 -22.34 0.36 -22 -1 C-19.94696077 -0.48674019 -17.90563418 0.02775465 -15.875 0.625 C-13.91960301 1.2156101 -13.91960301 1.2156101 -12 0 C-10.67511887 -0.36548445 -9.33981486 -0.6937566 -8 -1 C-7.154375 -1.226875 -6.30875 -1.45375 -5.4375 -1.6875 C-3 -2 -3 -2 0 0 Z M-9 0 C-8 2 -8 2 -8 2 Z " fill="#936DBD" transform="translate(188,283)"/>
<path d="M0 0 C0.66 0.99 1.32 1.98 2 3 C4.56282742 3.72965366 4.56282742 3.72965366 7 4 C6.67 4.66 6.34 5.32 6 6 C6.66 6.66 7.32 7.32 8 8 C1.52443609 7.38909774 1.52443609 7.38909774 -0.9375 5.5625 C-2 4 -2 4 -2 2 C-1.34 2 -0.68 2 0 2 C0 1.34 0 0.68 0 0 Z " fill="#AF88C7" transform="translate(432,377)"/>
<path d="M0 0 C2.31 0 4.62 0 7 0 C7 0.99 7 1.98 7 3 C4.36 2.67 1.72 2.34 -1 2 C-0.67 1.34 -0.34 0.68 0 0 Z " fill="#AB84C5" transform="translate(112,117)"/>
<path d="M0 0 C-0.66 0.66 -1.32 1.32 -2 2 C-5.125 1.625 -5.125 1.625 -8 1 C-7 -1 -7 -1 -5.125 -1.75 C-3 -2 -3 -2 0 0 Z " fill="#8C66BB" transform="translate(188,283)"/>
</svg>
